<?xml version="1.0" encoding="UTF-8"?>
<svg xmlns="http://www.w3.org/2000/svg" viewBox="0 0 1700 1200" font-family="Arial, sans-serif">
  <defs>
    <marker id="arrow" viewBox="0 0 10 10" refX="9" refY="5" markerWidth="6" markerHeight="6" orient="auto-start-reverse">
      <path d="M0,0 L10,5 L0,10 z" fill="#666"/>
    </marker>
    <style>
      .title { font-size: 20px; font-weight: 700; fill: #1F3864; }
      .subtitle { font-size: 12px; fill: #595959; font-style: italic; }
      .sectionTitle { font-size: 15px; font-weight: 700; fill: #1F3864; }
      .layerLabel { font-size: 11px; fill: #595959; font-weight: 700; letter-spacing: 1px; }
      .tableTitle { font-size: 10.5px; font-weight: 700; fill: white; }
      .col { font-size: 9px; fill: #333; font-family: monospace; }
      .colPk { font-size: 9px; fill: #1F3864; font-weight: 700; font-family: monospace; }
      .note { font-size: 9px; fill: #595959; font-style: italic; }
      .grpLabel { font-size: 11px; font-weight: 700; fill: #1F3864; }
    </style>
  </defs>

  <text x="850" y="30" text-anchor="middle" class="title">Giant Eagle Gold Layer: Lift-and-Shift vs Lakehouse-Native</text>
  <text x="850" y="50" text-anchor="middle" class="subtitle">All 51 Snowflake views covered. Same Power BI consumes either side via compatibility view layer.</text>

  <line x1="780" y1="80" x2="780" y2="1170" stroke="#CCC" stroke-width="0.5" stroke-dasharray="4,4"/>

  <!-- VERSION A -->
  <text x="390" y="90" text-anchor="middle" class="sectionTitle">Version A: Lift-and-Shift (51 Delta views, 1:1)</text>
  <text x="390" y="108" text-anchor="middle" class="subtitle">Mechanical port. Inherits the per-DC duplication and per-BU view sprawl.</text>

  <text x="40" y="138" class="layerLabel">SHARED BRONZE (35 base tables)</text>
  <line x1="40" y1="143" x2="740" y2="143" stroke="#1F3864" stroke-width="0.5" opacity="0.3"/>
  <g transform="translate(40,150)">
    <rect width="700" height="56" rx="3" fill="#F5F5F5" stroke="#999" stroke-width="0.5"/>
    <text x="10" y="16" class="col" font-weight="700">Inventory:</text>
    <text x="10" y="28" class="col">item_master_ite_item · dcinventory_dci_inventory · ite_item_package · dci_location · dci_ilpn</text>
    <text x="10" y="40" class="col" font-weight="700">Transactions / receiving / outbound / shipment / orders / tasks:</text>
    <text x="10" y="52" class="col">pix_entry · rcv_asn(_line) · rcv_purchase_order(_line, _status) · ppk_olpn(_detail) · tsk_task · dco_order · shp_shipment · etc.</text>
  </g>

  <text x="40" y="232" class="layerLabel">GOLD LIFT-AND-SHIFT (51 Delta views, grouped by BU)</text>
  <line x1="40" y1="237" x2="740" y2="237" stroke="#2E75B6" stroke-width="0.5" opacity="0.3"/>

  <g transform="translate(40,250)">
    <rect width="220" height="220" rx="3" fill="#EAF1F8" stroke="#2E75B6" stroke-width="0.7"/>
    <rect width="220" height="20" rx="3" fill="#2E75B6"/>
    <text x="10" y="14" class="tableTitle">BICEPS (14 views)</text>
    <text x="8" y="36" class="col">biceps_iroo_v</text>
    <text x="8" y="48" class="col">biceps_iroo_v_d0001 · d0044 · d0050</text>
    <text x="8" y="60" class="col">biceps_iroo_v_d0061 · d0070 · d0080</text>
    <text x="8" y="78" class="col">biceps_qroo_v</text>
    <text x="8" y="90" class="col">biceps_qroo_v_d0001 · d0044 · d0050</text>
    <text x="8" y="102" class="col">biceps_qroo_v_d0061 · d0070 · d0080</text>
    <text x="8" y="124" class="note">Same SQL, 6 facility filters duplicated</text>
    <text x="8" y="138" class="note">across IROO and QROO patterns</text>
    <text x="8" y="166" class="grpLabel">CCS (4 views)</text>
    <text x="8" y="180" class="col">ccs_inv_compare_v · ccs_iroo_v</text>
    <text x="8" y="192" class="col">ccs_qroo_v · ccs_item_snapshot_v</text>
    <text x="8" y="210" class="note">Cross-facility / corporate</text>
  </g>

  <g transform="translate(270,250)">
    <rect width="220" height="220" rx="3" fill="#EAF1F8" stroke="#2E75B6" stroke-width="0.7"/>
    <rect width="220" height="20" rx="3" fill="#2E75B6"/>
    <text x="10" y="14" class="tableTitle">GE_CS Corporate (4 views)</text>
    <text x="8" y="36" class="col">ge_cs_invn_dly_total_v</text>
    <text x="8" y="48" class="col">ge_cs_adjustment_reason_v</text>
    <text x="8" y="60" class="col">ge_cs_cycl_cnt_adjmt_dtlv</text>
    <text x="8" y="72" class="col">ge_cs_transaction_dtl_v</text>
    <text x="8" y="94" class="grpLabel">HBC pharmacy (6 views)</text>
    <text x="8" y="108" class="col">hbc_iroo_v_d0080</text>
    <text x="8" y="120" class="col">hbc_qroo_v_d0080</text>
    <text x="8" y="132" class="col">hbc_item_snapshot_v_d0080</text>
    <text x="8" y="144" class="col">hbc_pharmacy_transportion_oh_v</text>
    <text x="8" y="156" class="col">hbc_pharmacy_transportion_pa_v</text>
    <text x="8" y="168" class="col">hbc_task_group_desc</text>
    <text x="8" y="190" class="note">Regulatory-sensitive (controlled subs)</text>
  </g>

  <g transform="translate(500,250)">
    <rect width="240" height="220" rx="3" fill="#EAF1F8" stroke="#2E75B6" stroke-width="0.7"/>
    <rect width="240" height="20" rx="3" fill="#2E75B6"/>
    <text x="10" y="14" class="tableTitle">Single-BU variants (15 views)</text>
    <text x="8" y="36" class="col" font-weight="700">ASF (D0061, 3):</text>
    <text x="8" y="48" class="col">asf_iroo · asf_qroo · asf_item_snapshot</text>
    <text x="8" y="64" class="col" font-weight="700">BRM (D0050, 3):</text>
    <text x="8" y="76" class="col">brm_iroo · brm_qroo · brm_item_snapshot</text>
    <text x="8" y="92" class="col" font-weight="700">FFM (D0070, 3):</text>
    <text x="8" y="104" class="col">ffm_iroo · ffm_qroo · ffm_item_snapshot</text>
    <text x="8" y="120" class="col" font-weight="700">OKG (D0001, 3):</text>
    <text x="8" y="132" class="col">okg_iroo · okg_qroo · okg_item_snapshot</text>
    <text x="8" y="148" class="col" font-weight="700">OKP (D0044, 3):</text>
    <text x="8" y="160" class="col">okp_iroo · okp_qroo · okp_item_snapshot</text>
    <text x="8" y="184" class="note">Each BU = same template, different facility filter.</text>
    <text x="8" y="198" class="note">Six near-identical copies of three patterns.</text>
  </g>

  <g transform="translate(40,485)">
    <rect width="450" height="80" rx="3" fill="#EAF1F8" stroke="#2E75B6" stroke-width="0.7"/>
    <rect width="450" height="20" rx="3" fill="#2E75B6"/>
    <text x="10" y="14" class="tableTitle">Transportation + Specialty (8 views)</text>
    <text x="8" y="36" class="col">v_gesc_closed_loads · v_gesc_wm_inventory · v_load_sheets</text>
    <text x="8" y="48" class="col">pse_case_v · sis_v · item_first_rcpt</text>
    <text x="8" y="60" class="col">time_diff (freshness diagnostic) · misha_test_v (DEV, drop)</text>
    <text x="8" y="74" class="note">Heterogeneous shapes; no obvious pattern reuse.</text>
  </g>

  <g transform="translate(500,485)">
    <rect width="240" height="80" rx="3" fill="#FFF2CC" stroke="#D4A017" stroke-width="0.7"/>
    <text x="10" y="14" class="tableTitle" fill="#7A4900">Pattern observed</text>
    <text x="8" y="28" class="col" fill="#7A4900">~40 of 51 views are per-DC duplicates</text>
    <text x="8" y="40" class="col" fill="#7A4900">of just 3 templates: IROO, QROO, SNAPSHOT.</text>
    <text x="8" y="55" class="col" fill="#7A4900">Schema changes ripple through N copies.</text>
    <text x="8" y="70" class="col" fill="#7A4900">Per-DC SQL maintenance is ongoing tax.</text>
  </g>

  <!-- VERSION B -->
  <text x="1230" y="90" text-anchor="middle" class="sectionTitle">Version B: Lakehouse-Native (de facto Gold by Databricks expert)</text>
  <text x="1230" y="108" text-anchor="middle" class="subtitle">Conformed dimensions + 12 facts + 51 compatibility views (template + filter).</text>

  <text x="820" y="138" class="layerLabel">SHARED BRONZE (same 35 base tables)</text>
  <line x1="820" y1="143" x2="1640" y2="143" stroke="#1F3864" stroke-width="0.5" opacity="0.3"/>
  <g transform="translate(820,150)">
    <rect width="820" height="36" rx="3" fill="#F5F5F5" stroke="#999" stroke-width="0.5"/>
    <text x="10" y="20" class="col">Same Bronze feeds both versions. Lakeflow Connect-managed; no duplication.</text>
  </g>

  <text x="820" y="210" class="layerLabel">CONFORMED DIMENSIONS (8 tables)</text>
  <line x1="820" y1="215" x2="1640" y2="215" stroke="#B8860B" stroke-width="0.5" opacity="0.3"/>

  <g transform="translate(820,225)">
    <rect width="190" height="100" rx="3" fill="#FFF7E6" stroke="#D4A017" stroke-width="0.7"/>
    <rect width="190" height="18" rx="3" fill="#B8860B"/>
    <text x="8" y="13" class="tableTitle">dim_item</text>
    <text x="8" y="30" class="colPk">item_sk (PK)</text>
    <text x="8" y="42" class="col">item_id (natural)</text>
    <text x="8" y="54" class="col">profile_id, descriptions</text>
    <text x="8" y="66" class="col">ext_gegl_department</text>
    <text x="8" y="78" class="col">unit/pack dims (denormalized)</text>
    <text x="8" y="92" class="note">SCD2-ready</text>
  </g>

  <g transform="translate(1025,225)">
    <rect width="190" height="100" rx="3" fill="#FFF7E6" stroke="#D4A017" stroke-width="0.7"/>
    <rect width="190" height="18" rx="3" fill="#B8860B"/>
    <text x="8" y="13" class="tableTitle">dim_facility</text>
    <text x="8" y="30" class="colPk">facility_sk (PK)</text>
    <text x="8" y="42" class="col">facility_id (D0001..D0080)</text>
    <text x="8" y="54" class="col">facility_short (01..80)</text>
    <text x="8" y="66" class="col">virtual_warehouse_group</text>
    <text x="8" y="78" class="col">business_unit_code</text>
    <text x="8" y="92" class="note">14 facilities loaded</text>
  </g>

  <g transform="translate(1230,225)">
    <rect width="190" height="100" rx="3" fill="#FFF7E6" stroke="#D4A017" stroke-width="0.7"/>
    <rect width="190" height="18" rx="3" fill="#B8860B"/>
    <text x="8" y="13" class="tableTitle">dim_business_unit</text>
    <text x="8" y="30" class="colPk">business_unit_sk (PK)</text>
    <text x="8" y="42" class="col">business_unit_code</text>
    <text x="8" y="54" class="col">primary_facility_id</text>
    <text x="8" y="66" class="col">facility_id_pattern</text>
    <text x="8" y="92" class="note">BICEPS, HBC, ASF, BRM, FFM, OKG, OKP, CCS</text>
  </g>

  <g transform="translate(1435,225)">
    <rect width="190" height="100" rx="3" fill="#FFF7E6" stroke="#D4A017" stroke-width="0.7"/>
    <rect width="190" height="18" rx="3" fill="#B8860B"/>
    <text x="8" y="13" class="tableTitle">dim_location</text>
    <text x="8" y="30" class="colPk">location_sk (PK)</text>
    <text x="8" y="42" class="col">location_id, barcode</text>
    <text x="8" y="54" class="col">facility_id (FK)</text>
    <text x="8" y="66" class="col">location_type</text>
    <text x="8" y="78" class="col">aisle, bay, level</text>
  </g>

  <g transform="translate(820,335)">
    <rect width="190" height="70" rx="3" fill="#FFF7E6" stroke="#D4A017" stroke-width="0.7"/>
    <rect width="190" height="18" rx="3" fill="#B8860B"/>
    <text x="8" y="13" class="tableTitle">dim_date</text>
    <text x="8" y="30" class="colPk">date_sk (PK, yyyyMMdd)</text>
    <text x="8" y="42" class="col">full_date, fiscal_period</text>
    <text x="8" y="54" class="col">month, quarter, year</text>
  </g>

  <g transform="translate(1025,335)">
    <rect width="190" height="70" rx="3" fill="#FFF7E6" stroke="#D4A017" stroke-width="0.7"/>
    <rect width="190" height="18" rx="3" fill="#B8860B"/>
    <text x="8" y="13" class="tableTitle">dim_adjustment_reason</text>
    <text x="8" y="30" class="colPk">reason_sk (PK)</text>
    <text x="8" y="42" class="col">reason_code, description</text>
    <text x="8" y="54" class="col">category, profile_id</text>
  </g>

  <g transform="translate(1230,335)">
    <rect width="190" height="70" rx="3" fill="#FFF7E6" stroke="#D4A017" stroke-width="0.7"/>
    <rect width="190" height="18" rx="3" fill="#B8860B"/>
    <text x="8" y="13" class="tableTitle">dim_carrier</text>
    <text x="8" y="30" class="colPk">carrier_sk (PK)</text>
    <text x="8" y="42" class="col">carrier_id, carrier_name</text>
  </g>

  <g transform="translate(1435,335)">
    <rect width="190" height="70" rx="3" fill="#FFF7E6" stroke="#D4A017" stroke-width="0.7"/>
    <rect width="190" height="18" rx="3" fill="#B8860B"/>
    <text x="8" y="13" class="tableTitle">dim_purchase_order</text>
    <text x="8" y="30" class="colPk">purchase_order_sk (PK)</text>
    <text x="8" y="42" class="col">purchase_order_id</text>
    <text x="8" y="54" class="col">vendor_id, status</text>
  </g>

  <text x="820" y="430" class="layerLabel">CONFORMED FACTS (12 tables, liquid-clustered on facility + date)</text>
  <line x1="820" y1="435" x2="1640" y2="435" stroke="#2E7D32" stroke-width="0.5" opacity="0.3"/>

  <g transform="translate(820,445)">
    <rect width="195" height="85" rx="3" fill="#E8F4EA" stroke="#2E7D32" stroke-width="0.7"/>
    <rect width="195" height="18" rx="3" fill="#1B5E20"/>
    <text x="8" y="13" class="tableTitle">fact_inventory_snapshot</text>
    <text x="8" y="30" class="col">item_sk, facility_sk, location_sk</text>
    <text x="8" y="42" class="col">business_unit_sk, date_sk</text>
    <text x="8" y="54" class="col">on_hand, allocated, available</text>
    <text x="8" y="66" class="col">outside_staging, pick_locn, ilpn</text>
    <text x="8" y="78" class="note">replaces IROO + ITEM_SNAPSHOT</text>
  </g>

  <g transform="translate(1025,445)">
    <rect width="195" height="85" rx="3" fill="#E8F4EA" stroke="#2E7D32" stroke-width="0.7"/>
    <rect width="195" height="18" rx="3" fill="#1B5E20"/>
    <text x="8" y="13" class="tableTitle">fact_inventory_transaction</text>
    <text x="8" y="30" class="col">pix_entry_id, item_sk, facility_sk</text>
    <text x="8" y="42" class="col">date_sk, reason_sk</text>
    <text x="8" y="54" class="col">signed_quantity, grouping_tag</text>
    <text x="8" y="66" class="col">source_transaction_type</text>
    <text x="8" y="78" class="note">replaces QROO transactions</text>
  </g>

  <g transform="translate(1230,445)">
    <rect width="195" height="85" rx="3" fill="#E8F4EA" stroke="#2E7D32" stroke-width="0.7"/>
    <rect width="195" height="18" rx="3" fill="#1B5E20"/>
    <text x="8" y="13" class="tableTitle">fact_cycle_count_adjustment</text>
    <text x="8" y="30" class="col">pix_entry_id, item_sk, facility_sk</text>
    <text x="8" y="42" class="col">reason_sk, count_session_id</text>
    <text x="8" y="54" class="col">adjustment_qty</text>
    <text x="8" y="78" class="note">backs GE_CS_CYCL_CNT_ADJMT</text>
  </g>

  <g transform="translate(1435,445)">
    <rect width="195" height="85" rx="3" fill="#E8F4EA" stroke="#2E7D32" stroke-width="0.7"/>
    <rect width="195" height="18" rx="3" fill="#1B5E20"/>
    <text x="8" y="13" class="tableTitle">fact_inventory_daily_total</text>
    <text x="8" y="30" class="col">item_sk, facility_sk, date_sk</text>
    <text x="8" y="42" class="col">total_on_hand</text>
    <text x="8" y="78" class="note">backs GE_CS_INVN_DLY_TOTAL</text>
  </g>

  <g transform="translate(820,540)">
    <rect width="195" height="85" rx="3" fill="#E8F4EA" stroke="#2E7D32" stroke-width="0.7"/>
    <rect width="195" height="18" rx="3" fill="#1B5E20"/>
    <text x="8" y="13" class="tableTitle">fact_receiving_event</text>
    <text x="8" y="30" class="col">asn_id, asn_line_id</text>
    <text x="8" y="42" class="col">item_sk, facility_sk, date_sk</text>
    <text x="8" y="54" class="col">purchase_order_sk</text>
    <text x="8" y="66" class="col">ordered_qty, received_qty</text>
    <text x="8" y="78" class="note">backs ITEM_FIRST_RCPT etc.</text>
  </g>

  <g transform="translate(1025,540)">
    <rect width="195" height="85" rx="3" fill="#E8F4EA" stroke="#2E7D32" stroke-width="0.7"/>
    <rect width="195" height="18" rx="3" fill="#1B5E20"/>
    <text x="8" y="13" class="tableTitle">fact_pickpack_event</text>
    <text x="8" y="30" class="col">olpn_id, item_sk, facility_sk</text>
    <text x="8" y="42" class="col">order_id, packed_qty</text>
    <text x="8" y="54" class="col">destination_facility_id</text>
    <text x="8" y="78" class="note">outbound pick/pack lifecycle</text>
  </g>

  <g transform="translate(1230,540)">
    <rect width="195" height="85" rx="3" fill="#E8F4EA" stroke="#2E7D32" stroke-width="0.7"/>
    <rect width="195" height="18" rx="3" fill="#1B5E20"/>
    <text x="8" y="13" class="tableTitle">fact_ilpn_lifecycle</text>
    <text x="8" y="30" class="col">ilpn_id, facility_sk, item_sk</text>
    <text x="8" y="42" class="col">asn_id, purchase_order_id</text>
    <text x="8" y="54" class="col">current/prev/dest location</text>
    <text x="8" y="78" class="note">backs PSE_CASE_V</text>
  </g>

  <g transform="translate(1435,540)">
    <rect width="195" height="85" rx="3" fill="#FCE7E7" stroke="#9B1C1C" stroke-width="0.7"/>
    <rect width="195" height="18" rx="3" fill="#9B1C1C"/>
    <text x="8" y="13" class="tableTitle">fact_pharmacy_transport</text>
    <text x="8" y="30" class="col">transport_variant ('OH'/'PA')</text>
    <text x="8" y="42" class="col">olpn_id, destination_facility</text>
    <text x="8" y="54" class="col">ext_pharmacy_routeid</text>
    <text x="8" y="78" class="note" fill="#9B1C1C">controlled substances (regulated)</text>
  </g>

  <g transform="translate(820,635)">
    <rect width="195" height="80" rx="3" fill="#E8F4EA" stroke="#2E7D32" stroke-width="0.7"/>
    <rect width="195" height="18" rx="3" fill="#1B5E20"/>
    <text x="8" y="13" class="tableTitle">fact_transportation_shipment</text>
    <text x="8" y="30" class="col">shipment_id, carrier_sk</text>
    <text x="8" y="42" class="col">origin_facility_sk, destination</text>
    <text x="8" y="54" class="col">pallets, product_class</text>
    <text x="8" y="72" class="note">V_LOAD_SHEETS header</text>
  </g>

  <g transform="translate(1025,635)">
    <rect width="195" height="80" rx="3" fill="#E8F4EA" stroke="#2E7D32" stroke-width="0.7"/>
    <rect width="195" height="18" rx="3" fill="#1B5E20"/>
    <text x="8" y="13" class="tableTitle">fact_load_sheet</text>
    <text x="8" y="30" class="col">shipment_sk, item_sk</text>
    <text x="8" y="42" class="col">order_id, stop_sequence</text>
    <text x="8" y="54" class="col">ship_qty, pallets</text>
    <text x="8" y="72" class="note">V_LOAD_SHEETS detail + V_GESC</text>
  </g>

  <g transform="translate(1230,635)">
    <rect width="195" height="80" rx="3" fill="#E8F4EA" stroke="#2E7D32" stroke-width="0.7"/>
    <rect width="195" height="18" rx="3" fill="#1B5E20"/>
    <text x="8" y="13" class="tableTitle">fact_task_completion</text>
    <text x="8" y="30" class="col">task_id, item_sk, facility_sk</text>
    <text x="8" y="42" class="col">task_type_id, quantity</text>
    <text x="8" y="72" class="note">labor productivity</text>
  </g>

  <g transform="translate(1435,635)">
    <rect width="195" height="80" rx="3" fill="#E8F4EA" stroke="#2E7D32" stroke-width="0.7"/>
    <rect width="195" height="18" rx="3" fill="#1B5E20"/>
    <text x="8" y="13" class="tableTitle">mv_inventory_compare</text>
    <text x="8" y="30" class="col">(materialized view on snapshot)</text>
    <text x="8" y="42" class="col">facility, item, on_hand, allocated</text>
    <text x="8" y="72" class="note">backs CCS_INV_COMPARE_V</text>
  </g>

  <text x="820" y="745" class="layerLabel">COMPATIBILITY VIEW LAYER (51 views, one per Snowflake view shape)</text>
  <line x1="820" y1="750" x2="1640" y2="750" stroke="#2E75B6" stroke-width="0.5" opacity="0.3"/>

  <g transform="translate(820,760)">
    <rect width="820" height="200" rx="3" fill="#EAF1F8" stroke="#2E75B6" stroke-width="0.7"/>
    <text x="10" y="18" class="grpLabel">Same column shapes as Version A. Power BI sees no difference.</text>

    <text x="10" y="42" class="col" font-weight="700">Template-then-filter pattern (collapses ~40 of 51 views to ~6 templates):</text>
    <text x="10" y="56" class="col">v_biceps_iroo  →  v_biceps_iroo_d0001, _d0044, _d0050, _d0061, _d0070, _d0080</text>
    <text x="10" y="68" class="col">v_biceps_qroo  →  6 per-DC variants (same pattern)</text>
    <text x="10" y="80" class="col">v_ccs_item_snapshot  →  v_hbc_item_snapshot_d0080, v_asf, v_brm, v_ffm, v_okg, v_okp</text>
    <text x="10" y="92" class="col">v_hbc_iroo_d0080  =  v_biceps_iroo WHERE profile_id = 'D0080'</text>

    <text x="10" y="116" class="col" font-weight="700">Explicit (non-templatable) views:</text>
    <text x="10" y="130" class="col">v_ge_cs_invn_dly_total · v_ge_cs_adjustment_reason · v_ge_cs_cycl_cnt_adjmt_dtlv · v_ge_cs_transaction_dtl</text>
    <text x="10" y="142" class="col">v_ccs_inv_compare · v_ccs_iroo · v_ccs_qroo · v_ccs_item_snapshot</text>
    <text x="10" y="154" class="col">v_hbc_pharmacy_transport_oh · v_hbc_pharmacy_transport_pa</text>
    <text x="10" y="166" class="col">v_gesc_closed_loads · v_load_sheets · v_gesc_wm_inventory</text>
    <text x="10" y="178" class="col">v_pse_case · v_sis · v_item_first_rcpt · v_time_diff</text>
    <text x="10" y="194" class="note">misha_test_v: confirmed dev artifact, intentionally not migrated. Retire at cutover.</text>
  </g>

  <line x1="920" y1="715" x2="920" y2="760" stroke="#2E75B6" stroke-width="0.4" stroke-dasharray="2,2" opacity="0.5"/>
  <line x1="1130" y1="715" x2="1130" y2="760" stroke="#2E75B6" stroke-width="0.4" stroke-dasharray="2,2" opacity="0.5"/>
  <line x1="1330" y1="715" x2="1330" y2="760" stroke="#2E75B6" stroke-width="0.4" stroke-dasharray="2,2" opacity="0.5"/>
  <line x1="1530" y1="715" x2="1530" y2="760" stroke="#2E75B6" stroke-width="0.4" stroke-dasharray="2,2" opacity="0.5"/>

  <!-- Decision banner -->
  <g transform="translate(140,1010)">
    <rect width="1420" height="60" rx="6" fill="#1F3864"/>
    <text x="710" y="25" text-anchor="middle" fill="white" font-size="14" font-weight="700">Decision input: A is low-risk and mechanical. B is the expert opinionated remodel, collapses ~40 views to ~6 templates, adds clustering, simpler maintenance.</text>
    <text x="710" y="48" text-anchor="middle" fill="white" font-size="12">Both expose identical Power BI surfaces via the compatibility layer. Same query, same result, different engine room.</text>
  </g>

  <!-- Power BI -->
  <g transform="translate(560,1100)">
    <rect width="580" height="50" rx="6" fill="#F2C811" stroke="#7B6300" stroke-width="0.8"/>
    <text x="290" y="22" text-anchor="middle" font-size="14" font-weight="700">Power BI (51 datasets, same workbooks)</text>
    <text x="290" y="40" text-anchor="middle" font-size="11" font-style="italic" fill="#7B6300">Repoints to either Gold version with identical column shapes</text>
  </g>

  <line x1="390" y1="565" x2="700" y2="1100" stroke="#7B6300" stroke-width="0.6" stroke-dasharray="3,3" marker-end="url(#arrow)"/>
  <line x1="1230" y1="960" x2="1000" y2="1100" stroke="#7B6300" stroke-width="0.6" stroke-dasharray="3,3" marker-end="url(#arrow)"/>
</svg>
